<svg width="36" height="45" viewBox="0 0 36 45" fill="none" xmlns="http://www.w3.org/2000/svg">
<g style="mix-blend-mode:multiply">
<path d="M25.85 22.63C24.977 23.9067 23.8057 24.9511 22.4378 25.6729C21.0699 26.3946 19.5466 26.7718 18 26.7718C16.4534 26.7718 14.9301 26.3946 13.5622 25.6729C12.1943 24.9511 11.0231 23.9067 10.15 22.63C8.3655 23.8835 6.90938 25.5486 5.90498 27.4843C4.90058 29.42 4.37749 31.5692 4.38001 33.75V44.88H31.62V33.75C31.6225 31.5692 31.0994 29.42 30.095 27.4843C29.0906 25.5486 27.6345 23.8835 25.85 22.63Z" fill="#6F00FF"/>
</g>
<g style="mix-blend-mode:multiply">
<path d="M25.85 22.63C26.827 21.2013 27.3956 19.5331 27.4945 17.8051C27.5933 16.0771 27.2187 14.3548 26.411 12.824C25.6034 11.2932 24.3932 10.0118 22.911 9.11801C21.4288 8.22419 19.7308 7.75183 18 7.75183C16.2692 7.75183 14.5711 8.22419 13.089 9.11801C11.6068 10.0118 10.3966 11.2932 9.58894 12.824C8.78125 14.3548 8.40665 16.0771 8.50552 17.8051C8.60439 19.5331 9.17297 21.2013 10.15 22.63C12.4442 21.003 15.1874 20.129 18 20.129C20.8126 20.129 23.5557 21.003 25.85 22.63Z" fill="#D15187"/>
</g>
<path d="M18 26.77C19.5465 26.7702 21.0697 26.3933 22.4376 25.6719C23.8055 24.9505 24.9768 23.9064 25.85 22.63C23.5558 21.003 20.8126 20.129 18 20.129C15.1874 20.129 12.4443 21.003 10.15 22.63C11.0233 23.9064 12.1946 24.9505 13.5625 25.6719C14.9304 26.3933 16.4536 26.7702 18 26.77Z" fill="#A445BB"/>
<path d="M0.75 16.79L4.84 17.25L0.75 17.72V16.79Z" fill="#6F2CFF"/>
<path d="M18.46 0.0100098L18 4.09001L17.54 0.0100098H18.46Z" fill="#6F2CFF"/>
<path d="M35.25 17.72L31.16 17.25L35.25 16.79V17.72Z" fill="#6F2CFF"/>
</svg>
